<mxfile host="app.diagrams.net" modified="2024-04-08T09:24:48.387Z" agent="Mozilla/5.0 (Windows NT 10.0; Win64; x64) AppleWebKit/537.36 (KHTML, like Gecko) Chrome/123.0.0.0 Safari/537.36 Edg/123.0.0.0" version="24.2.2" etag="c7iNDev5YPcxfOBPAbOf" type="github">
  <diagram name="Trang-1" id="NpQZoXhPYA4H8a4L3QnT">
    <mxGraphModel>
      <root>
        <mxCell id="0" />
        <mxCell id="1" parent="0" />
      </root>
    </mxGraphModel>
  </diagram>
</mxfile>
